<svg width="40" height="40" viewBox="0 0 40 40" fill="none" xmlns="http://www.w3.org/2000/svg">
<rect width="40" height="40" rx="5" fill="white"/>
<path d="M27.995 14.687C28.8914 14.1511 29.5622 13.3072 29.882 12.313C29.0397 12.8128 28.118 13.1649 27.157 13.354C25.8246 11.9445 23.7135 11.6015 22.0034 12.5167C20.2933 13.4318 19.4075 15.3785 19.841 17.269C16.3906 17.0958 13.176 15.4659 10.997 12.785C9.85986 14.7464 10.441 17.2538 12.325 18.515C11.6437 18.4931 10.9775 18.3087 10.382 17.977C10.382 17.995 10.382 18.013 10.382 18.031C10.3824 20.0742 11.8224 21.8341 13.825 22.239C13.1931 22.4109 12.5302 22.4362 11.887 22.313C12.4502 24.0603 14.0606 25.2573 15.896 25.293C14.3758 26.4861 12.4985 27.1332 10.566 27.13C10.2235 27.1305 9.88123 27.1108 9.54102 27.071C11.5034 28.332 13.7874 29.0014 16.12 28.999C19.3653 29.0213 22.484 27.7419 24.7787 25.447C27.0734 23.1521 28.3526 20.0333 28.33 16.788C28.33 16.602 28.3257 16.417 28.317 16.233C29.1575 15.6256 29.8828 14.8732 30.459 14.011C29.676 14.3581 28.8455 14.5859 27.995 14.687Z" fill="url(#paint0_linear_2_884)"/>
<defs>
<linearGradient id="paint0_linear_2_884" x1="3.44491" y1="-0.803232" x2="46.8946" y2="6.35926" gradientUnits="userSpaceOnUse">
<stop stop-color="#F5F6FF"/>
<stop offset="0.262329" stop-color="#9FA3E0"/>
<stop offset="1" stop-color="#292A2D"/>
</linearGradient>
</defs>
</svg>
