<svg width="40" height="40" viewBox="0 0 40 40" fill="none" xmlns="http://www.w3.org/2000/svg">
<rect width="40" height="40" rx="5" fill="white"/>
<path fill-rule="evenodd" clip-rule="evenodd" d="M8.79984 0H31.1982C33.5298 0.00919708 35.7632 0.939433 37.4119 2.58802C39.0605 4.2366 39.9908 6.46992 40 8.80136V31.1792C39.9949 33.5137 39.0665 35.7514 37.4175 37.404C35.7686 39.0565 33.5328 39.9898 31.1982 40H8.79984C6.4656 39.9892 4.23034 39.0558 2.58176 37.4033C0.933183 35.7508 0.00509874 33.5134 0 31.1792V8.80136C0.00868677 6.4701 0.938538 4.23678 2.58689 2.58814C4.23525 0.939496 6.46848 0.00920035 8.79984 0Z" fill="white"/>
<path d="M25.8638 33.6116H14.1358C12.0813 33.6085 10.1118 32.791 8.65909 31.3383C7.20633 29.8856 6.38882 27.9163 6.38574 25.8619V14.1345C6.38933 12.0804 7.20707 10.1115 8.65977 8.65926C10.1125 7.207 12.0816 6.3898 14.1358 6.38672H25.8638C27.9179 6.3898 29.8871 7.207 31.3398 8.65926C32.7925 10.1115 33.6102 12.0804 33.6138 14.1345V25.8638C33.6102 27.9179 32.7925 29.8867 31.3398 31.339C29.8871 32.7913 27.9179 33.6085 25.8638 33.6116ZM14.1358 8.71706C12.6999 8.7186 11.3233 9.28965 10.308 10.3049C9.2927 11.3202 8.72162 12.6967 8.72008 14.1325V25.8619C8.72008 27.2987 9.29048 28.6767 10.306 29.6932C11.3214 30.7098 12.6989 31.2816 14.1358 31.2831H25.8638C27.2996 31.2816 28.6763 30.7106 29.6916 29.6953C30.7069 28.68 31.278 27.3035 31.2795 25.8677V14.1345C31.278 12.6987 30.7069 11.3221 29.6916 10.3069C28.6763 9.2916 27.2996 8.72054 25.8638 8.719L14.1358 8.71706Z" fill="url(#paint0_linear_93_3326)"/>
<path d="M19.9993 26.9706C18.6203 26.9706 17.2723 26.5617 16.1257 25.7955C14.9791 25.0294 14.0855 23.9405 13.5579 22.6664C13.0302 21.3924 12.8923 19.9906 13.1615 18.6382C13.4306 17.2857 14.0948 16.0435 15.0701 15.0686C16.0453 14.0937 17.2878 13.4298 18.6403 13.1611C19.9929 12.8923 21.3948 13.0306 22.6687 13.5586C23.9426 14.0866 25.0314 14.9804 25.7972 16.1272C26.5631 17.2739 26.9717 18.622 26.9713 20.0009C26.9672 21.8485 26.2312 23.6191 24.9246 24.9254C23.6179 26.2316 21.8469 26.967 19.9993 26.9706ZM19.9993 15.3635C19.0821 15.3635 18.1854 15.6355 17.4228 16.1451C16.6601 16.6546 16.0657 17.3789 15.7147 18.2263C15.3637 19.0736 15.2718 20.0061 15.4508 20.9056C15.6297 21.8052 16.0714 22.6315 16.72 23.28C17.3686 23.9286 18.1949 24.3703 19.0946 24.5492C19.9942 24.7281 20.9266 24.6363 21.774 24.2853C22.6215 23.9343 23.3458 23.3399 23.8554 22.5773C24.3649 21.8147 24.6369 20.9181 24.6369 20.0009C24.6328 18.7732 24.1426 17.597 23.2735 16.7297C22.4044 15.8625 21.2271 15.3747 19.9993 15.3732V15.3635Z" fill="url(#paint1_linear_93_3326)"/>
<path d="M28.9449 12.6296C28.9452 12.9613 28.8472 13.2857 28.6631 13.5617C28.479 13.8377 28.2172 14.0529 27.9108 14.18C27.6044 14.3071 27.2671 14.3405 26.9417 14.2759C26.6163 14.2112 26.3174 14.0515 26.0828 13.817C25.8483 13.5824 25.6885 13.2835 25.6239 12.9581C25.5593 12.6327 25.5927 12.2955 25.7198 11.9891C25.8469 11.6827 26.0621 11.4209 26.3381 11.2368C26.6141 11.0527 26.9385 10.9547 27.2703 10.9551C27.7144 10.9551 28.1403 11.1315 28.4544 11.4455C28.7684 11.7596 28.9449 12.1855 28.9449 12.6296V12.6296Z" fill="url(#paint2_linear_93_3326)"/>
<defs>
<linearGradient id="paint0_linear_93_3326" x1="-1.5493" y1="-14.1399" x2="55.5208" y2="-6.49721" gradientUnits="userSpaceOnUse">
<stop stop-color="#F5F6FF"/>
<stop offset="0.262329" stop-color="#9FA3E0"/>
<stop offset="1" stop-color="#292A2D"/>
</linearGradient>
<linearGradient id="paint1_linear_93_3326" x1="8.96369" y1="2.51457" x2="38.1902" y2="6.42827" gradientUnits="userSpaceOnUse">
<stop stop-color="#F5F6FF"/>
<stop offset="0.262329" stop-color="#9FA3E0"/>
<stop offset="1" stop-color="#292A2D"/>
</linearGradient>
<linearGradient id="paint2_linear_93_3326" x1="24.6146" y1="8.4271" x2="31.6427" y2="9.36822" gradientUnits="userSpaceOnUse">
<stop stop-color="#F5F6FF"/>
<stop offset="0.262329" stop-color="#9FA3E0"/>
<stop offset="1" stop-color="#292A2D"/>
</linearGradient>
</defs>
</svg>
