<svg width="124" height="34" viewBox="0 0 124 34" fill="none" xmlns="http://www.w3.org/2000/svg">
<path d="M84.3528 26.6135H80.7778V15.7845H74.8368V22.7785C74.8368 23.1511 74.9235 23.4458 75.0968 23.6625C75.2788 23.8791 75.5345 23.9875 75.8638 23.9875C76.0372 23.9875 76.1845 23.9701 76.3058 23.9355C76.4272 23.8921 76.5312 23.8488 76.6178 23.8055C76.7045 23.7535 76.7825 23.7101 76.8518 23.6755C76.9298 23.6321 77.0078 23.6105 77.0858 23.6105C77.1898 23.6105 77.2765 23.6365 77.3458 23.6885C77.4152 23.7318 77.4845 23.8098 77.5538 23.9225L78.6328 25.6385C78.1388 26.0285 77.5798 26.3231 76.9558 26.5225C76.3318 26.7218 75.6862 26.8215 75.0188 26.8215C74.4122 26.8215 73.8748 26.7348 73.4068 26.5615C72.9388 26.3795 72.5445 26.1238 72.2238 25.7945C71.9032 25.4651 71.6605 25.0665 71.4958 24.5985C71.3312 24.1305 71.2488 23.6018 71.2488 23.0125V15.7845H69.9878C69.7972 15.7845 69.6325 15.7238 69.4938 15.6025C69.3638 15.4811 69.2988 15.2991 69.2988 15.0565V13.6525L71.4438 13.2625L72.1718 9.79147C72.2672 9.40147 72.5315 9.20647 72.9648 9.20647H74.8368V13.2885H84.3528V26.6135ZM84.9118 9.37547C84.9118 9.67013 84.8512 9.9518 84.7298 10.2205C84.6085 10.4805 84.4438 10.7101 84.2358 10.9095C84.0365 11.1001 83.7982 11.2561 83.5208 11.3775C83.2522 11.4901 82.9618 11.5465 82.6498 11.5465C82.3552 11.5465 82.0735 11.4901 81.8048 11.3775C81.5448 11.2561 81.3152 11.1001 81.1158 10.9095C80.9165 10.7101 80.7562 10.4805 80.6348 10.2205C80.5222 9.9518 80.4658 9.67013 80.4658 9.37547C80.4658 9.07213 80.5222 8.79047 80.6348 8.53047C80.7562 8.2618 80.9165 8.0278 81.1158 7.82847C81.3152 7.62913 81.5448 7.47313 81.8048 7.36047C82.0735 7.23913 82.3552 7.17847 82.6498 7.17847C82.9618 7.17847 83.2522 7.23913 83.5208 7.36047C83.7982 7.47313 84.0365 7.62913 84.2358 7.82847C84.4438 8.0278 84.6085 8.2618 84.7298 8.53047C84.8512 8.79047 84.9118 9.07213 84.9118 9.37547Z" fill="#324F87"/>
<path d="M87.7529 26.6135V13.2105H89.9629C90.4136 13.2105 90.7126 13.4185 90.8599 13.8345L91.0679 14.7055C91.3019 14.4628 91.5403 14.2375 91.7829 14.0295C92.0343 13.8215 92.3029 13.6438 92.5889 13.4965C92.8749 13.3405 93.1826 13.2191 93.5119 13.1325C93.8499 13.0458 94.2139 13.0025 94.6039 13.0025C95.4273 13.0025 96.1076 13.2235 96.6449 13.6655C97.1823 14.0988 97.5896 14.6795 97.8669 15.4075C98.0836 14.9828 98.3479 14.6188 98.6599 14.3155C98.9806 14.0035 99.3273 13.7521 99.6999 13.5615C100.081 13.3708 100.48 13.2321 100.896 13.1455C101.321 13.0501 101.745 13.0025 102.17 13.0025C102.924 13.0025 103.591 13.1151 104.172 13.3405C104.753 13.5658 105.238 13.8995 105.628 14.3415C106.027 14.7748 106.33 15.3078 106.538 15.9405C106.746 16.5731 106.85 17.2925 106.85 18.0985V26.6135H103.262V18.0985C103.262 16.5298 102.59 15.7455 101.247 15.7455C100.944 15.7455 100.662 15.7975 100.402 15.9015C100.151 15.9968 99.9253 16.1441 99.7259 16.3435C99.5353 16.5428 99.3836 16.7898 99.2709 17.0845C99.1669 17.3791 99.1149 17.7171 99.1149 18.0985V26.6135H95.5269V18.0985C95.5269 17.2491 95.3579 16.6468 95.0199 16.2915C94.6906 15.9275 94.2009 15.7455 93.5509 15.7455C93.1349 15.7455 92.7406 15.8451 92.3679 16.0445C92.0039 16.2351 91.6616 16.5038 91.3409 16.8505V26.6135H87.7529Z" fill="#324F87"/>
<path d="M118.517 18.3325C118.517 17.9598 118.465 17.6045 118.361 17.2665C118.266 16.9285 118.11 16.6295 117.893 16.3695C117.677 16.1095 117.404 15.9058 117.074 15.7585C116.745 15.6025 116.351 15.5245 115.891 15.5245C115.033 15.5245 114.362 15.7671 113.876 16.2525C113.391 16.7378 113.075 17.4311 112.927 18.3325H118.517ZM112.875 20.4645C112.988 21.7211 113.343 22.6398 113.941 23.2205C114.548 23.8011 115.337 24.0915 116.307 24.0915C116.801 24.0915 117.226 24.0351 117.581 23.9225C117.945 23.8011 118.262 23.6711 118.53 23.5325C118.808 23.3851 119.055 23.2551 119.271 23.1425C119.497 23.0211 119.718 22.9605 119.934 22.9605C120.212 22.9605 120.428 23.0645 120.584 23.2725L121.624 24.5725C121.243 25.0145 120.823 25.3828 120.363 25.6775C119.904 25.9635 119.427 26.1931 118.933 26.3665C118.439 26.5311 117.941 26.6438 117.438 26.7045C116.936 26.7738 116.45 26.8085 115.982 26.8085C115.046 26.8085 114.171 26.6568 113.356 26.3535C112.55 26.0415 111.844 25.5865 111.237 24.9885C110.639 24.3818 110.167 23.6321 109.82 22.7395C109.474 21.8468 109.3 20.8111 109.3 19.6325C109.3 18.7225 109.448 17.8645 109.742 17.0585C110.046 16.2525 110.479 15.5505 111.042 14.9525C111.606 14.3545 112.29 13.8821 113.096 13.5355C113.902 13.1801 114.812 13.0025 115.826 13.0025C116.684 13.0025 117.473 13.1411 118.192 13.4185C118.92 13.6871 119.544 14.0815 120.064 14.6015C120.593 15.1215 121 15.7628 121.286 16.5255C121.581 17.2795 121.728 18.1418 121.728 19.1125C121.728 19.3811 121.715 19.6021 121.689 19.7755C121.663 19.9488 121.62 20.0875 121.559 20.1915C121.499 20.2955 121.416 20.3691 121.312 20.4125C121.208 20.4471 121.074 20.4645 120.909 20.4645H112.875Z" fill="#324F87"/>
<path d="M49.017 13.295V26.698H45.429V13.295H49.017ZM49.446 9.486C49.446 9.78934 49.3853 10.071 49.264 10.331C49.1427 10.591 48.978 10.8207 48.77 11.02C48.5707 11.2193 48.3323 11.3753 48.055 11.488C47.7863 11.6007 47.496 11.657 47.184 11.657C46.8893 11.657 46.6077 11.6007 46.339 11.488C46.079 11.3753 45.8493 11.2193 45.65 11.02C45.4507 10.8207 45.2903 10.591 45.169 10.331C45.0563 10.071 45 9.78934 45 9.486C45 9.18267 45.0563 8.901 45.169 8.641C45.2903 8.37234 45.4507 8.13834 45.65 7.939C45.8493 7.73967 46.079 7.58367 46.339 7.471C46.6077 7.35834 46.8893 7.302 47.184 7.302C47.496 7.302 47.7863 7.35834 48.055 7.471C48.3323 7.58367 48.5707 7.73967 48.77 7.939C48.978 8.13834 49.1427 8.37234 49.264 8.641C49.3853 8.901 49.446 9.18267 49.446 9.486Z" fill="#9FA3E0"/>
<path d="M55.7319 14.855C56.0006 14.595 56.2779 14.3567 56.5639 14.14C56.8586 13.9233 57.1662 13.737 57.4869 13.581C57.8162 13.425 58.1672 13.3037 58.5399 13.217C58.9212 13.1303 59.3329 13.087 59.7749 13.087C60.5029 13.087 61.1486 13.2127 61.7119 13.464C62.2752 13.7153 62.7476 14.0663 63.1289 14.517C63.5189 14.9677 63.8092 15.505 63.9999 16.129C64.1992 16.753 64.2989 17.4377 64.2989 18.183V26.698H60.7239V18.183C60.7239 17.4377 60.5506 16.8613 60.2039 16.454C59.8572 16.038 59.3459 15.83 58.6699 15.83C58.1672 15.83 57.6949 15.9383 57.2529 16.155C56.8109 16.3717 56.3906 16.675 55.9919 17.065V26.698H52.4039V13.295H54.6139C55.0646 13.295 55.3636 13.503 55.5109 13.919L55.7319 14.855Z" fill="#9FA3E0"/>
<g clip-path="url(#clip0_62_4009)">
<path d="M33.9861 16.7409C33.9861 16.9301 33.9861 17.1999 33.9861 17.4417V17.4802C33.9861 17.5713 33.9861 17.6554 33.9861 17.722C33.9861 17.8236 33.9861 17.9357 33.9861 18.0548C33.9543 20.3894 33.583 22.7067 32.8841 24.9327C32.3166 26.7394 31.3678 28.4008 30.103 29.8029C29.0013 30.9946 27.6707 31.9482 26.1922 32.6059C24.5374 33.3271 22.7754 33.7664 20.9778 33.9058C20.9616 33.9075 20.9453 33.9075 20.9291 33.9058C20.2652 33.9619 19.5699 33.9969 18.8434 33.9969H17.1956C14.9682 34.0372 12.7511 33.6813 10.6463 32.9458C8.84683 32.3023 7.22345 31.2399 5.90806 29.845C4.54928 28.3514 3.55218 26.5609 2.99493 24.6139C2.29206 22.1635 1.9581 19.6206 2.0042 17.0703C1.95837 14.5027 2.29227 11.9426 2.99493 9.47415C3.55073 7.50987 4.54749 5.70082 5.90806 4.18699C7.22062 2.77881 8.84557 1.70417 10.6497 1.05113C12.5264 0.381325 14.4993 0.0262373 16.4899 0C16.1423 0.129639 15.7773 0.266284 15.447 0.420449C13.8462 1.12373 12.4017 2.1436 11.199 3.41967C9.78037 4.97417 8.72657 6.83019 8.11552 8.85048C7.38409 11.2838 7.01505 13.813 7.02048 16.3555C7.02048 16.5342 7.02048 16.7059 7.02048 16.9126C7.02048 17.1193 7.02048 17.284 7.02048 17.4662C7.03533 18.8104 7.17618 20.1501 7.44112 21.4675C7.53498 21.9335 7.63927 22.382 7.76441 22.8059C8.0951 24.0004 8.67064 25.1116 9.45389 26.0679C10.3125 27.051 11.4133 27.7882 12.6451 28.2052C13.2796 28.4269 13.9322 28.5923 14.5953 28.6993L14.7518 28.7238H14.8421C15.6104 28.8314 16.3852 28.8853 17.1608 28.885H18.8086C19.0102 28.885 19.2118 28.885 19.4065 28.885C19.9802 28.8698 20.5524 28.8206 21.1203 28.7378C22.1936 28.6022 23.2383 28.2935 24.2142 27.8233C25.0975 27.3924 25.8851 26.7858 26.5295 26.0399C27.4109 24.9584 28.0351 23.688 28.3545 22.3259C28.7768 20.5847 28.9754 18.796 28.9455 17.0037C28.9751 15.213 28.7789 13.4258 28.3614 11.685C28.043 10.3203 27.4267 9.04435 26.5572 7.95002C25.9198 7.19756 25.1352 6.58567 24.2525 6.15259L24.1482 6.10704H24.8817C25.6317 6.10435 26.3809 6.15469 27.1239 6.25771H27.183L27.322 6.28574L27.6696 6.3453L27.8609 6.38384H27.9165H27.9547L28.0486 6.40837L28.2363 6.45041C28.3962 6.49246 28.5596 6.53801 28.7125 6.58706L28.8029 6.61509C28.9107 6.64662 29.0115 6.68516 29.1123 6.7202C30.1765 7.09039 31.125 7.73698 31.8621 8.59471C32.597 9.52376 33.1299 10.5981 33.4264 11.7481C33.5098 12.0459 33.5863 12.3577 33.6524 12.6801C33.847 13.6914 33.9632 14.7164 34 15.7459C34 15.8615 34 15.9701 34 16.0717C34 16.1383 34 16.2189 34 16.31C34 16.4011 33.9861 16.5693 33.9861 16.7409Z" fill="#324F87"/>
<path d="M39.9957 16.9226C40.0423 19.4904 39.7099 22.051 39.0096 24.52C38.4535 26.4858 37.4567 28.296 36.0965 29.8104C34.7875 31.2201 33.1654 32.2956 31.364 32.9482C29.4616 33.6261 27.4613 33.9814 25.444 34C25.819 33.8668 26.1871 33.723 26.5412 33.5618C28.1418 32.8457 29.5835 31.812 30.7807 30.5221C32.1458 29.0091 33.1694 27.2148 33.7806 25.2632C34.509 22.9392 34.8986 20.5204 34.9368 18.0831C34.9368 17.9814 34.9368 17.8692 34.9368 17.7325V16.0917C34.9368 15.9725 34.9368 15.8638 34.9368 15.7622C34.8969 14.2102 34.6636 12.6695 34.2424 11.1764C33.9179 9.97896 33.3424 8.86586 32.5549 7.91239C31.6993 6.92811 30.6008 6.19021 29.371 5.77377C27.9016 5.28137 26.3601 5.04428 24.8121 5.07259H23.1663C22.4089 5.06934 21.6523 5.12207 20.9025 5.23035C19.8296 5.36676 18.7851 5.67568 17.8088 6.1454C16.9283 6.57768 16.1431 7.18458 15.4999 7.92992C14.6184 9.01184 13.9937 10.283 13.6736 11.6462C13.253 13.3875 13.0558 15.1761 13.0868 16.9682C13.0552 18.7612 13.2513 20.551 13.6701 22.2937C13.9855 23.6595 14.6001 24.9366 15.4686 26.031C16.1069 26.7838 16.8917 27.3959 17.7741 27.8296L17.8748 27.8751H17.0971C15.6819 27.906 14.2722 27.6889 12.9305 27.2336C11.8707 26.8609 10.9261 26.2141 10.191 25.3579C9.45319 24.4302 8.9194 23.3546 8.6251 22.2026C8.21794 20.657 8.0079 19.0653 8.0001 17.466C8.0001 17.2837 8.0001 17.1154 8.0001 16.9261C8.0001 16.7368 8.0001 16.5755 8.0001 16.3827C7.99303 13.9424 8.34405 11.5145 9.04174 9.17803C9.61005 7.30679 10.5879 5.58857 11.9028 4.15053C13.0092 2.97316 14.3387 2.03246 15.8124 1.38435C17.4671 0.670752 19.2265 0.236089 21.0206 0.0976748C21.715 0.0345681 22.4407 0.0030132 23.1872 0.0030132H24.833C27.0588 -0.0368545 29.2743 0.319169 31.3779 1.05479C33.1715 1.69875 34.7902 2.75914 36.1035 4.15053C36.7608 4.85503 37.3288 5.63937 37.7944 6.48548C38.3021 7.40562 38.7118 8.37752 39.0166 9.38488C39.7121 11.8344 40.0421 14.3749 39.9957 16.9226Z" fill="#324F87"/>
<path d="M20 10V18.25L26 21" stroke="#324F87" stroke-width="2" stroke-linecap="round" stroke-linejoin="round"/>
</g>
<defs>
<clipPath id="clip0_62_4009">
<rect width="38" height="34" fill="white" transform="translate(2)"/>
</clipPath>
</defs>
</svg>
